<?xml version="1.0" encoding="iso-8859-1"?>
<!-- Generator: Adobe Illustrator 18.0.0, SVG Export Plug-In . SVG Version: 6.00 Build 0)  -->
<!DOCTYPE svg PUBLIC "-//W3C//DTD SVG 1.1//EN" "http://www.w3.org/Graphics/SVG/1.1/DTD/svg11.dtd">
<svg version="1.1" id="Capa_1" xmlns="http://www.w3.org/2000/svg" xmlns:xlink="http://www.w3.org/1999/xlink" x="0px" y="0px"
	 viewBox="0 0 461.978 461.978" style="enable-background:new 0 0 461.978 461.978;" xml:space="preserve">
<g>
	<path d="M254.583,155.197c0,3.92-0.979,7.798-2.829,11.215c-1.973,3.642-0.619,8.194,3.022,10.167
		c1.136,0.615,2.359,0.907,3.565,0.907c2.664,0,5.244-1.422,6.602-3.93c3.035-5.604,4.64-11.952,4.64-18.359
		c0-21.281-17.313-38.594-38.594-38.594c-4.143,0-7.5,3.358-7.5,7.5s3.357,7.5,7.5,7.5
		C243.999,131.603,254.583,142.187,254.583,155.197z"/>
	<path d="M287.138,187.06c5.5-10.098,8.134-21.423,7.653-33.112c-0.946-23.003-14.479-43.77-34.926-54.214V49.976
		c4.1-0.049,7.409-3.384,7.409-7.495V7.5c0-4.142-3.357-7.5-7.5-7.5h-57.572c-4.143,0-7.5,3.358-7.5,7.5v34.981
		c0,4.111,3.309,7.446,7.409,7.495v49.698c-21.409,10.827-34.981,32.663-34.981,56.957c0,10.724,2.649,21.122,7.711,30.428
		c-21.385,3.214-37.833,21.712-37.833,43.979V438c0,13.221,10.756,23.977,23.977,23.977h140.008
		c13.221,0,23.977-10.756,23.977-23.977V231.038C324.969,208.772,308.522,190.276,287.138,187.06z M209.703,15h42.572v19.981
		h-42.572V15z M181.482,201.564c0.083,0,39.631,0,39.631,0c4.143,0,7.5-3.375,7.5-7.517s-3.357-7.5-7.5-7.5h-29.246
		c-0.309-0.813-0.698-1.603-1.204-2.341c-5.582-8.139-8.532-17.674-8.532-27.576c0-19.901,11.905-37.646,30.329-45.207
		c2.814-1.155,4.652-3.896,4.652-6.938V49.981h27.754v54.545c0,3.033,1.827,5.768,4.63,6.929
		c17.636,7.306,29.532,24.227,30.308,43.109c0.438,10.648-2.493,20.893-8.477,29.626c-0.53,0.774-0.938,1.603-1.253,2.458h-7.209
		c-4.143,0-7.5,3.358-7.5,7.5s3.357,7.5,7.5,7.5h19.733c15.273,1.083,27.371,13.846,27.371,29.39v21.601H298v-18.452
		c0-9.865-8.025-17.891-17.891-17.891c-4.143,0-7.5,3.358-7.5,7.5s3.357,7.5,7.5,7.5c1.594,0,2.891,1.297,2.891,2.891v18.452
		H152.008v-21.601C152.008,214.786,165.23,201.564,181.482,201.564z M152.008,375.078V267.639h157.961v107.439H152.008z
		 M300.993,446.978H160.985c-4.949,0-8.977-4.027-8.977-8.977v-47.922H283v41.074c0,4.142,3.357,7.5,7.5,7.5s7.5-3.358,7.5-7.5
		v-41.074h11.97V438C309.969,442.95,305.942,446.978,300.993,446.978z"/>
	<path d="M230.991,279.233c-39.27,0-70.031,18.503-70.031,42.125s30.762,42.125,70.031,42.125s70.03-18.504,70.03-42.125
		S270.26,279.233,230.991,279.233z M230.991,348.484c-26.029,0-55.031-11.14-55.031-27.125s29.002-27.125,55.031-27.125
		c26.028,0,55.03,11.14,55.03,27.125S257.019,348.484,230.991,348.484z"/>
</g>
<g>
</g>
<g>
</g>
<g>
</g>
<g>
</g>
<g>
</g>
<g>
</g>
<g>
</g>
<g>
</g>
<g>
</g>
<g>
</g>
<g>
</g>
<g>
</g>
<g>
</g>
<g>
</g>
<g>
</g>
</svg>
